<?xml version="1.0" standalone="no"?><!DOCTYPE svg PUBLIC "-//W3C//DTD SVG 1.1//EN" "http://www.w3.org/Graphics/SVG/1.1/DTD/svg11.dtd"><svg t="1647919379619" class="icon" viewBox="0 0 1024 1024" version="1.1" xmlns="http://www.w3.org/2000/svg" p-id="8915" xmlns:xlink="http://www.w3.org/1999/xlink" width="200" height="200"><defs><style type="text/css">@font-face { font-family: feedback-iconfont; src: url("//at.alicdn.com/t/font_1031158_u69w8yhxdu.woff2?t=1630033759944") format("woff2"), url("//at.alicdn.com/t/font_1031158_u69w8yhxdu.woff?t=1630033759944") format("woff"), url("//at.alicdn.com/t/font_1031158_u69w8yhxdu.ttf?t=1630033759944") format("truetype"); }
</style></defs><path d="M437.333333 85.333333h-320C100.266667 85.333333 85.333333 100.266667 85.333333 117.333333v320c0 17.066667 14.933333 32 32 32h320c17.066667 0 32-14.933333 32-32v-320c0-17.066667-14.933333-32-32-32zM405.333333 405.333333H149.333333V149.333333h256v256zM437.333333 554.666667h-320c-17.066667 0-32 14.933333-32 32v320c0 17.066667 14.933333 32 32 32h320c17.066667 0 32-14.933333 32-32v-320c0-17.066667-14.933333-32-32-32zM405.333333 874.666667H149.333333V618.666667h256v256zM906.666667 554.666667h-320c-17.066667 0-32 14.933333-32 32v320c0 17.066667 14.933333 32 32 32h320c17.066667 0 32-14.933333 32-32v-320c0-17.066667-14.933333-32-32-32zM874.666667 874.666667H618.666667V618.666667h256v256zM586.666667 309.333333h128v128c0 17.066667 14.933333 32 32 32s32-14.933333 32-32v-128h128c17.066667 0 32-14.933333 32-32s-14.933333-32-32-32h-128v-128c0-17.066667-14.933333-32-32-32s-32 14.933333-32 32v128h-128c-17.066667 0-32 14.933333-32 32s14.933333 32 32 32z" p-id="8916"></path></svg>