<svg class="icon" viewBox="0 0 1024 1024" xmlns="http://www.w3.org/2000/svg" width="200" height="200"><defs><style>@font-face{font-family:feedback-iconfont;src:url(//at.alicdn.com/t/font_1031158_u69w8yhxdu.woff2?t=1630033759944) format(&quot;woff2&quot;),url(//at.alicdn.com/t/font_1031158_u69w8yhxdu.woff?t=1630033759944) format(&quot;woff&quot;),url(//at.alicdn.com/t/font_1031158_u69w8yhxdu.ttf?t=1630033759944) format(&quot;truetype&quot;)}</style></defs><path d="M512 423.8c-49.3 0-89.2 40-89.2 89.3s40 89.2 89.3 89.2 89.2-40 89.2-89.3c0-49.2-40-89.2-89.3-89.2zm312.1 427.6l25.2-25.2c27.9-27.6 28.1-72.6.4-100.5l-.4-.4-43.6-43.5c14.1-24.5 25-50.6 32.8-78.4h47c39.4 0 71.4-32 71.4-71.3v-35.6c0-39.4-32-71.4-71.4-71.4H839c-7.2-27.2-17.9-53.3-31.6-77.8l41.9-41.8c27.9-27.8 27.9-72.9.1-100.8l-.1-.1-25.2-25.2c-27.9-27.9-73-27.9-100.9 0l-41.1 41c-25.3-14.7-52.5-26.1-80.8-33.8v-48c0-39.4-32-71.3-71.4-71.3h-35.6c-39.5 0-71.4 31.9-71.4 71.3v47.9c-28.3 7.7-55.5 19.1-80.9 33.8l-41-41c-27.9-27.8-73-27.8-100.9 0l-25.2 25.3c-27.8 27.8-27.8 73 0 100.9l41.9 41.9c-13.7 24.5-24.3 50.6-31.5 77.7h-46.6c-39.5 0-71.3 32-71.3 71.5v35.7c0 39.4 31.9 71.3 71.3 71.3h47.1c7.6 27.5 18.5 53.8 32.7 78.4L175 725.5c-27.9 27.7-28 72.8-.3 100.7l.3.3 25.2 25.2c27.8 27.9 73 27.9 100.9 0l43.8-43.8c24.6 14 50.9 24.7 78.1 32.1v45.7c0 39.4 31.9 71.3 71.3 71.3h35.6c39.4 0 71.3-31.9 71.3-71.3V840c27.3-7.4 53.5-18.2 78.1-32.1l43.9 43.8c27.7 27.6 72.9 27.6 100.9-.3zM512 711.5c-108.4 0-196.3-87.9-196.3-196.3S403.6 319 512 319s196.3 87.9 196.3 196.3S620.4 711.5 512 711.5z"/></svg>