<svg class="icon" viewBox="0 0 1024 1024" xmlns="http://www.w3.org/2000/svg" width="200" height="200"><defs><style>@font-face{font-family:feedback-iconfont;src:url(//at.alicdn.com/t/font_1031158_u69w8yhxdu.woff2?t=1630033759944) format(&quot;woff2&quot;),url(//at.alicdn.com/t/font_1031158_u69w8yhxdu.woff?t=1630033759944) format(&quot;woff&quot;),url(//at.alicdn.com/t/font_1031158_u69w8yhxdu.ttf?t=1630033759944) format(&quot;truetype&quot;)}</style></defs><path d="M720.64 791.467a42.667 42.667 0 0 1-37.973 61.866H85.333a42.667 42.667 0 0 1-37.973-61.866L108.8 668.16a128 128 0 0 1 114.773-70.827h320.854A128 128 0 0 1 659.2 668.16zM384 512a170.667 170.667 0 1 0-170.667-170.667A170.667 170.667 0 0 0 384 512zm576-85.333H853.333V320A21.333 21.333 0 0 0 832 298.667h-42.667A21.333 21.333 0 0 0 768 320v106.667H661.333A21.333 21.333 0 0 0 640 448v42.667A21.333 21.333 0 0 0 661.333 512H768v106.667A21.333 21.333 0 0 0 789.333 640H832a21.333 21.333 0 0 0 21.333-21.333V512H960a21.333 21.333 0 0 0 21.333-21.333V448A21.333 21.333 0 0 0 960 426.667z"/></svg>